<svg width="48" height="42" viewBox="0 0 48 42" fill="none" xmlns="http://www.w3.org/2000/svg">
<path fill-rule="evenodd" clip-rule="evenodd" d="M25.6384 41.7143H2.64923C1.18567 41.7143 0 40.6974 0 39.4434V2.84216C0 1.58785 1.18586 0.571411 2.64923 0.571411H45.351C46.814 0.571411 48 1.58785 48 2.84216V39.4434C48 40.6975 46.8138 41.7143 45.351 41.7143H33.1193V25.7815H39.3585L40.2928 19.5722H33.1193V15.608C33.1193 13.8102 33.7017 12.5851 36.7093 12.5851L40.5453 12.5837V7.03006C39.8819 6.95439 37.6048 6.78533 34.9556 6.78533C29.4248 6.78533 25.6384 9.67901 25.6384 14.993V19.5722H19.3831V25.7815H25.6384V41.7143Z" fill="#4460A0"/>
</svg>
