<svg width="47" height="43" viewBox="0 0 47 43" fill="none" xmlns="http://www.w3.org/2000/svg">
<path fill-rule="evenodd" clip-rule="evenodd" d="M9.82726 21.2459C9.82726 19.8966 10.0804 18.6029 10.5323 17.3895L2.62344 12.0431C1.08205 14.8136 0.213623 17.9353 0.213623 21.2459C0.213623 24.5537 1.08099 27.6735 2.62024 30.4421L10.5248 25.0853C10.0772 23.8776 9.82726 22.5886 9.82726 21.2459Z" fill="#FBBC05"/>
<path fill-rule="evenodd" clip-rule="evenodd" d="M23.7137 8.97049C27.0251 8.97049 30.016 10.0092 32.366 11.7089L39.2024 5.66557C35.0364 2.45508 29.6955 0.472132 23.7137 0.472132C14.4269 0.472132 6.44549 5.17361 2.62354 12.0431L10.5324 17.3895C12.3547 12.4926 17.5492 8.97049 23.7137 8.97049Z" fill="#EA4335"/>
<path fill-rule="evenodd" clip-rule="evenodd" d="M23.7137 33.5213C17.5492 33.5213 12.3547 29.9992 10.5324 25.1023L2.62354 30.4477C6.44549 37.3182 14.4269 42.0197 23.7137 42.0197C29.4456 42.0197 34.9179 40.218 39.025 36.8423L31.5179 31.7046C29.3996 32.8858 26.7324 33.5213 23.7137 33.5213Z" fill="#34A853"/>
<path fill-rule="evenodd" clip-rule="evenodd" d="M46.1454 21.2459C46.1454 20.0184 45.9318 18.6964 45.6114 17.4689H23.7136V25.4951H36.3182C35.6879 28.2316 33.9724 30.3354 31.5178 31.7046L39.0249 36.8423C43.3393 33.2975 46.1454 28.0172 46.1454 21.2459Z" fill="#4285F4"/>
</svg>
