<svg width="30" height="31" viewBox="0 0 30 31" fill="none" xmlns="http://www.w3.org/2000/svg">
<path fill-rule="evenodd" clip-rule="evenodd" d="M29.5757 21.4187C29.5221 21.2986 29.4685 21.1753 29.4149 21.0519L29.4149 21.0517C29.3069 20.8031 29.1989 20.5545 29.091 20.3326C28.9769 20.0935 28.8629 19.8601 28.7518 19.6326C28.6106 19.3436 28.474 19.0641 28.3477 18.7941L28.3154 18.764C26.0849 14.2387 23.6936 9.65383 21.1722 5.12918L21.0753 4.94776C20.8101 4.47838 20.5517 4.0057 20.3001 3.52985L20.224 3.40176L20.224 3.40174C19.9248 2.89703 19.6131 2.37138 19.1364 1.87055C18.1022 0.6639 16.6153 0 15.0318 0C13.4155 0 11.9612 0.6639 10.895 1.80998C10.41 2.35273 10.0542 2.92592 9.7313 3.46928C9.47905 3.94483 9.22061 4.4175 8.95605 4.88719L8.85886 5.0686C6.37004 9.59325 3.94612 14.1785 1.71594 18.7034L1.68333 18.7634C1.55776 19.0319 1.42203 19.3095 1.28184 19.5962L1.28171 19.5965C1.16959 19.8257 1.05462 20.0608 0.939716 20.3018C0.778272 20.6339 0.616828 20.9959 0.455384 21.388C0.0349844 22.5039 -0.0944935 23.5599 0.0675961 24.6463C0.423095 26.9089 2.03883 28.8087 4.26933 29.654C5.10981 29.9861 5.98258 30.1368 6.88731 30.1368C7.14594 30.1368 7.46883 30.1067 7.72778 30.0762C8.7946 29.9557 9.89339 29.6242 10.9602 29.051C12.2853 28.3569 13.5459 27.3618 14.9679 25.9138C16.3899 27.3618 17.6827 28.3569 18.9756 29.051C20.0427 29.6242 21.1412 29.9557 22.2077 30.0762C22.4663 30.107 22.7898 30.1368 23.0485 30.1368C23.9535 30.1368 24.8583 29.9861 25.6661 29.654C27.9289 28.8087 29.5124 26.8788 29.8682 24.6463C30.1249 23.5906 29.9957 22.5352 29.5757 21.4187ZM14.9992 22.9873C13.2537 20.9359 12.1223 19.0054 11.7348 17.3768C11.5734 16.6828 11.5408 16.0795 11.638 15.5364C11.7022 15.0536 11.8966 14.6311 12.1552 14.2692C12.7694 13.4552 13.8036 12.942 14.9995 12.942C16.1958 12.942 17.2623 13.4248 17.8442 14.2692C18.1028 14.6311 18.2965 15.0539 18.3618 15.5364C18.4583 16.0798 18.426 16.7129 18.2646 17.3768C17.8755 18.9752 16.7441 20.9061 14.9992 22.9873ZM24.9538 27.935C26.5373 27.3317 27.6687 25.9738 27.8947 24.4052C28.0242 23.621 27.9273 22.8664 27.6693 22.0829C27.602 21.8729 27.5032 21.6633 27.3951 21.4335C27.3477 21.3328 27.2984 21.2283 27.2493 21.1182C27.1203 20.8772 26.9994 20.6215 26.8785 20.3657C26.757 20.1085 26.6355 19.8514 26.5056 19.609V19.5789C24.238 15.0127 21.8782 10.487 19.4273 6.00403L19.3301 5.82261C19.2036 5.60091 19.0769 5.37182 18.9501 5.14251C18.8184 4.90427 18.6865 4.66579 18.5545 4.43514C18.2959 3.95326 18.0053 3.50062 17.6495 3.10734C16.9708 2.38407 16.066 1.9914 15.0638 1.9914C14.0615 1.9914 13.1568 2.38407 12.4781 3.10734C12.1223 3.49972 11.8317 3.95236 11.5731 4.43514C11.4477 4.65488 11.3222 4.88173 11.1966 5.10871C11.0636 5.34929 10.9304 5.59002 10.7972 5.82261L10.7003 6.00403C8.21147 10.4684 5.81984 15.0536 3.58998 19.5487L3.55737 19.6087C3.29841 20.1213 3.04042 20.6345 2.81408 21.1173C2.76452 21.2284 2.71489 21.3338 2.66712 21.4353C2.55929 21.6644 2.46091 21.8733 2.394 22.0826C2.07047 22.9273 2.00621 23.6813 2.10308 24.4353C2.3291 26.0039 3.4605 27.3618 5.04394 27.9652C5.78723 28.2364 6.62803 28.3572 7.50047 28.2665C8.30834 28.1764 9.11588 27.935 9.95635 27.4824C11.12 26.8791 12.316 25.9436 13.6411 24.5559C11.5404 22.1124 10.2153 19.8498 9.73066 17.8593C9.47202 16.954 9.44006 16.0795 9.56921 15.2947C9.69837 14.5407 9.98961 13.8467 10.442 13.2433C11.4439 11.9161 13.1249 11.1016 14.9989 11.1016C16.8729 11.1016 18.5539 11.8854 19.5565 13.2433C20.0088 13.8467 20.3001 14.5407 20.4289 15.2947C20.5264 16.0795 20.4938 16.9239 20.2675 17.8593C19.7825 19.8498 18.4896 22.0826 16.3566 24.5257C17.7144 25.9138 18.8777 26.8483 20.0414 27.4523C20.8813 27.9043 21.6898 28.1457 22.4976 28.2364C23.3375 28.3271 24.1783 28.2364 24.9538 27.935Z" fill="#FF5A5F"/>
</svg>
