<svg width="20" height="20" viewBox="0 0 20 20" fill="none" xmlns="http://www.w3.org/2000/svg">
<path fill-rule="evenodd" clip-rule="evenodd" d="M19.7171 14.2143C19.6814 14.1346 19.6457 14.0528 19.61 13.9709L19.6099 13.9708C19.5379 13.8058 19.4659 13.6408 19.394 13.4935C19.318 13.3349 19.242 13.18 19.1679 13.029C19.0737 12.8372 18.9827 12.6517 18.8985 12.4726L18.877 12.4526C17.3899 9.44941 15.7957 6.40667 14.1148 3.40393L14.0502 3.28353C13.8734 2.97203 13.7011 2.65835 13.5334 2.34255L13.4827 2.25756C13.2832 1.92261 13.0754 1.57375 12.7576 1.24138C12.0681 0.440591 11.0768 0 10.0212 0C8.94363 0 7.97411 0.440591 7.26333 1.20118C6.94001 1.56137 6.70279 1.94176 6.48753 2.30235C6.31937 2.61795 6.14707 2.93163 5.9707 3.24334L5.90591 3.36373C4.24669 6.36647 2.63075 9.40941 1.14396 12.4124L1.12222 12.4522C1.03851 12.6304 0.948022 12.8146 0.854561 13.0048C0.779788 13.157 0.703112 13.3131 0.626477 13.4731C0.518848 13.6935 0.411219 13.9337 0.303589 14.1939C0.0233229 14.9345 -0.0629957 15.6353 0.0450641 16.3563C0.282064 17.8578 1.35922 19.1186 2.84622 19.6796C3.40654 19.9 3.98838 20 4.59154 20C4.76396 20 4.97922 19.98 5.15186 19.9598C5.86307 19.8798 6.59559 19.6598 7.30681 19.2794C8.19023 18.8188 9.0306 18.1584 9.9786 17.1975C10.9266 18.1584 11.7885 18.8188 12.6504 19.2794C13.3618 19.6598 14.0941 19.8798 14.8051 19.9598C14.9775 19.9802 15.1932 20 15.3657 20C15.969 20 16.5722 19.9 17.1108 19.6796C18.6193 19.1186 19.6749 17.8378 19.9121 16.3563C20.0833 15.6557 19.9972 14.9553 19.7171 14.2143ZM9.99948 15.2553C8.83579 13.8939 8.08152 12.6127 7.82321 11.532C7.71558 11.0714 7.69384 10.671 7.75864 10.3106C7.80147 9.9902 7.93106 9.70981 8.10348 9.46961C8.5129 8.92942 9.20237 8.58883 9.99969 8.58883C10.7972 8.58883 11.5082 8.90922 11.8961 9.46961C12.0685 9.70981 12.1977 9.9904 12.2412 10.3106C12.3055 10.6712 12.284 11.0914 12.1764 11.532C11.917 12.5927 11.1627 13.8741 9.99948 15.2553ZM16.6359 18.5388C17.6915 18.1384 18.4458 17.2373 18.5965 16.1963C18.6828 15.6759 18.6182 15.1751 18.4462 14.6551C18.4013 14.5158 18.3355 14.3766 18.2634 14.2241C18.2318 14.1573 18.199 14.088 18.1662 14.0149C18.0802 13.8549 17.9996 13.6852 17.919 13.5155C17.838 13.3448 17.757 13.1742 17.6704 13.0133V12.9933C16.1587 9.96305 14.5854 6.95957 12.9515 3.98452L12.8867 3.86412C12.8024 3.71698 12.7179 3.56492 12.6334 3.41273C12.5456 3.25464 12.4576 3.09639 12.3697 2.94334C12.1973 2.62355 12.0035 2.32315 11.7663 2.06216C11.3138 1.58217 10.7107 1.32157 10.0425 1.32157C9.37437 1.32157 8.77121 1.58217 8.31874 2.06216C8.08152 2.32255 7.88779 2.62295 7.71537 2.94334C7.63177 3.08917 7.54812 3.23971 7.46442 3.39035C7.3757 3.55 7.28693 3.70976 7.1981 3.86412L7.13353 3.98452C5.47431 6.94726 3.87989 9.9902 2.39332 12.9733L2.37158 13.0131C2.19894 13.3533 2.02695 13.6939 1.87605 14.0143C1.84301 14.0881 1.80993 14.158 1.77808 14.2254C1.70619 14.3774 1.6406 14.516 1.596 14.6549C1.38031 15.2155 1.33748 15.7159 1.40205 16.2163C1.55273 17.2573 2.307 18.1584 3.36263 18.5588C3.85815 18.7388 4.41869 18.819 5.00031 18.7588C5.53889 18.699 6.07725 18.5388 6.63757 18.2384C7.41336 17.838 8.21068 17.2173 9.0941 16.2963C7.69363 14.6747 6.81021 13.1731 6.4871 11.8522C6.31468 11.2514 6.29337 10.671 6.37947 10.1502C6.46558 9.64981 6.65974 9.18922 6.96132 8.78882C7.62927 7.90804 8.7499 7.36745 9.99926 7.36745C11.2486 7.36745 12.3693 7.88764 13.0376 8.78882C13.3392 9.18922 13.5334 9.64981 13.6193 10.1502C13.6843 10.671 13.6625 11.2314 13.5116 11.8522C13.1883 13.1731 12.3264 14.6549 10.9044 16.2763C11.8096 17.1975 12.5852 17.8176 13.361 18.2184C13.9208 18.5184 14.4598 18.6786 14.9984 18.7388C15.5583 18.799 16.1188 18.7388 16.6359 18.5388Z" fill="#767676"/>
</svg>
